<svg width="28" height="32" viewBox="0 0 28 32" fill="none" xmlns="http://www.w3.org/2000/svg">
<path d="M11.6562 18.3125C11.6562 19.5187 10.7813 19.9 9.70625 19.9H6.8875V16.5938H9.7625C10.925 16.6 11.6562 17.0812 11.6562 18.3125V18.3125ZM11.175 13.1687C11.175 12.0625 10.3187 11.8 9.36875 11.8H6.89375V14.6H9.5625C10.5063 14.6 11.175 14.1875 11.175 13.1687V13.1687ZM19.4438 14.6187C18.3 14.6187 17.5375 15.3313 17.4625 16.475H21.35C21.2438 15.3188 20.6438 14.6187 19.4438 14.6187ZM28 5V27C28 28.6562 26.6562 30 25 30H3C1.34375 30 0 28.6562 0 27V5C0 3.34375 1.34375 2 3 2H25C26.6562 2 28 3.34375 28 5ZM16.9813 11.5625H21.8438V10.3813H16.9813V11.5625ZM14.2937 18.4562C14.2937 16.95 13.5812 15.65 12.1062 15.2312C13.1812 14.7187 13.7437 14.125 13.7437 12.9187C13.7437 10.5312 11.9625 9.95 9.90625 9.95H4.25V21.95H10.0688C12.25 21.9375 14.2937 20.8937 14.2937 18.4562V18.4562ZM23.75 17.5312C23.75 14.9625 22.2437 12.8188 19.525 12.8188C16.875 12.8188 15.0813 14.8063 15.0813 17.4188C15.0813 20.125 16.7875 21.9813 19.525 21.9813C21.6 21.9813 22.9438 21.05 23.5938 19.0562H21.4875C21.2562 19.8 20.325 20.1875 19.6 20.1875C18.2 20.1875 17.4688 19.3688 17.4688 17.9813H23.7313C23.7375 17.8375 23.75 17.6813 23.75 17.5312Z" fill="black"/>
</svg>
