<svg width="32" height="32" viewBox="0 0 32 32" fill="none" xmlns="http://www.w3.org/2000/svg">
<g clip-path="url(#clip0)">
<path d="M31.6075 11.006C31.6046 10.986 31.5996 10.9669 31.5963 10.9469C31.5896 10.9086 31.5826 10.8704 31.5726 10.833C31.5667 10.8105 31.5584 10.7889 31.5514 10.7673C31.5405 10.734 31.5298 10.7008 31.5165 10.6684C31.5072 10.6459 31.4965 10.6234 31.4861 10.6018C31.4722 10.5712 31.4568 10.5412 31.44 10.512C31.4275 10.4904 31.4142 10.4696 31.4013 10.4488C31.3833 10.4206 31.3641 10.3931 31.3438 10.3664C31.3288 10.3464 31.3133 10.3267 31.2973 10.3074C31.2757 10.2821 31.2531 10.2577 31.2295 10.2342C31.2117 10.2159 31.1942 10.1976 31.1755 10.181C31.1505 10.1586 31.1249 10.1369 31.0986 10.1161C31.0783 10.1003 31.0582 10.0845 31.0371 10.0695C31.0291 10.0645 31.0222 10.0579 31.0146 10.0529L16.5644 0.419459C16.3413 0.27062 16.079 0.191193 15.8108 0.191193C15.5425 0.191193 15.2803 0.27062 15.0572 0.419459L0.607006 10.0529C0.59955 10.0579 0.592478 10.0645 0.584606 10.0695C0.563358 10.0845 0.54339 10.1003 0.523454 10.1161C0.49697 10.1367 0.471318 10.1583 0.446558 10.181C0.427422 10.1976 0.409982 10.2159 0.39203 10.2342C0.368566 10.2576 0.346103 10.282 0.324702 10.3074C0.30851 10.3265 0.292702 10.3465 0.277694 10.3664C0.257593 10.3931 0.238591 10.4206 0.220734 10.4488C0.20705 10.4695 0.194019 10.4906 0.181662 10.512C0.165098 10.5414 0.149684 10.5713 0.135454 10.6018C0.125086 10.6234 0.11427 10.6459 0.105118 10.6684C0.0918062 10.7008 0.0810222 10.734 0.0702062 10.7673C0.0631342 10.7889 0.0552302 10.8105 0.0489582 10.833C0.0390062 10.8704 0.0323502 10.9086 0.0252782 10.9469C0.0219822 10.9669 0.0169582 10.986 0.0144622 11.006C0.00630861 11.0647 0.00214972 11.1238 0.00201416 11.1831L0.00201416 20.8165C0.00201416 20.8764 0.00655816 20.9355 0.0144622 20.9945C0.0169582 21.0137 0.0219822 21.0336 0.0252782 21.0526C0.0323502 21.0909 0.0390062 21.1292 0.0489582 21.1666C0.0552302 21.1891 0.0631342 21.2107 0.0702062 21.2323C0.0809902 21.2655 0.0918062 21.2989 0.105118 21.3321C0.11427 21.3546 0.125086 21.3762 0.135454 21.3979C0.150046 21.4285 0.16499 21.4584 0.181662 21.4885C0.19411 21.5093 0.207006 21.53 0.220734 21.5508C0.238591 21.5791 0.257593 21.6065 0.277694 21.6332C0.292702 21.654 0.30851 21.6731 0.324702 21.6922C0.34595 21.7171 0.368414 21.7421 0.39203 21.7654C0.409982 21.7836 0.427422 21.802 0.446558 21.8185C0.471283 21.8412 0.496937 21.8629 0.523454 21.8835C0.543374 21.8996 0.563767 21.9151 0.584606 21.93C0.592478 21.935 0.59955 21.9417 0.607006 21.9466L15.0572 31.5801C15.2803 31.7291 15.5427 31.8087 15.811 31.8088C16.0792 31.8086 16.3414 31.729 16.5644 31.5801L31.0146 21.9466C31.0221 21.9417 31.0291 21.935 31.037 21.93C31.0582 21.9151 31.0782 21.8993 31.0986 21.8835C31.1249 21.8627 31.1505 21.841 31.1754 21.8185C31.1941 21.8019 31.2117 21.7836 31.2295 21.7654C31.253 21.7419 31.2757 21.7175 31.2973 21.6922C31.3135 21.6731 31.329 21.6534 31.3438 21.6332C31.3641 21.6066 31.3833 21.5791 31.4013 21.5508C31.4142 21.53 31.4275 21.5093 31.4399 21.4885C31.457 21.4584 31.4719 21.4285 31.4861 21.3979C31.4964 21.3762 31.5072 21.3546 31.5164 21.3321C31.5298 21.2989 31.5405 21.2655 31.5514 21.2323C31.5584 21.2107 31.5667 21.1891 31.5725 21.1666C31.5825 21.1292 31.5896 21.0909 31.5963 21.0526C31.5996 21.0336 31.6046 21.0137 31.6075 20.9945C31.6149 20.9354 31.6196 20.8764 31.6196 20.8165V11.1831C31.6194 11.1238 31.6153 11.0647 31.6075 11.006ZM17.1695 4.08858L27.8145 11.1847L23.0597 14.3656L17.1695 10.4255V4.08858ZM14.4522 4.08858V10.4255L8.56224 14.3656L3.80707 11.1847L14.4522 4.08858ZM2.71933 13.7262L6.11856 15.9998L2.71933 18.2735V13.7262ZM14.4522 27.9111L3.80707 20.8149L8.56224 17.6348L14.4522 21.5741V27.9111ZM15.811 19.214L11.0055 15.9998L15.811 12.7856L20.6161 15.9998L15.811 19.214ZM17.1695 27.9111V21.5741L23.0597 17.6348L27.8145 20.8149L17.1695 27.9111ZM28.9022 18.2735L25.5034 15.9998L28.9022 13.7262V18.2735Z" fill="black"/>
</g>
<defs>
<clipPath id="clip0">
<rect width="31.62" height="32" fill="white"/>
</clipPath>
</defs>
</svg>
