<svg width="32" height="32" viewBox="0 0 32 32" fill="none" xmlns="http://www.w3.org/2000/svg">
<path d="M29 5H3C2.44687 5 2 5.44687 2 6V26C2 26.5531 2.44687 27 3 27H29C29.5531 27 30 26.5531 30 26V6C30 5.44687 29.5531 5 29 5ZM26.475 8.40312L16.6156 16.075C16.3719 16.2656 16.0313 16.2656 15.7875 16.075L5.925 8.40312C5.88782 8.37443 5.86055 8.33483 5.84702 8.28986C5.83348 8.24489 5.83435 8.19681 5.84951 8.15236C5.86467 8.10792 5.89336 8.06933 5.93156 8.042C5.96975 8.01468 6.01554 7.99999 6.0625 8H26.3375C26.3845 7.99999 26.4302 8.01468 26.4684 8.042C26.5066 8.06933 26.5353 8.10792 26.5505 8.15236C26.5656 8.19681 26.5665 8.24489 26.553 8.28986C26.5394 8.33483 26.5122 8.37443 26.475 8.40312V8.40312Z" fill="black"/>
</svg>
