<svg width="28" height="32" viewBox="0 0 28 32" fill="none" xmlns="http://www.w3.org/2000/svg">
<path d="M25 2H3C1.34375 2 0 3.34375 0 5V27C0 28.6562 1.34375 30 3 30H25C26.6562 30 28 28.6562 28 27V5C28 3.34375 26.6562 2 25 2ZM9.03125 19.9375C6.8375 19.9375 5.0625 18.1625 5.0625 15.9688C5.0625 13.775 6.8375 12 9.03125 12C11.225 12 13 13.775 13 15.9688C13 18.1625 11.225 19.9375 9.03125 19.9375ZM18.9688 19.9375C16.775 19.9375 15 18.1625 15 15.9688C15 13.775 16.775 12 18.9688 12C21.1625 12 22.9375 13.775 22.9375 15.9688C22.9375 18.1625 21.1625 19.9375 18.9688 19.9375Z" fill="black"/>
</svg>
