<svg width="40" height="32" viewBox="0 0 40 32" fill="none" xmlns="http://www.w3.org/2000/svg">
<g clip-path="url(#clip0)">
<path d="M34.5309 -0.0315074C33.4687 -0.0472194 31.0015 0.313357 26.882 3.07044C24.6369 2.50932 22.248 2.23243 19.8551 2.23243C17.2222 2.23243 14.5615 2.56676 12.0802 3.24744C6.1659 -0.787347 3.55537 0.0395006 3.55537 0.0395006C1.85112 4.30136 2.90427 7.45672 3.22437 8.24036C1.22126 10.4022 -0.00158691 13.1628 -0.00158691 16.5463C-0.00158691 19.1006 0.289133 21.3916 0.999405 23.3831C1.0388 23.5368 1.02603 23.5026 1.0924 23.6342C1.24888 24.0464 1.42286 24.4466 1.61841 24.8331C1.68542 24.9722 1.74641 25.0751 1.74641 25.0751C3.74305 28.797 7.67909 31.2012 14.6822 31.956L25.2741 31.968C32.7426 31.2274 36.3264 28.8161 37.9779 25.0691L38.0829 24.8251C38.2393 24.4466 38.3758 24.0528 38.7489 22.7271C39.122 21.4015 39.2889 19.1056 39.2889 16.5452C39.2889 12.8731 37.9097 9.93477 35.6699 7.69934C36.0613 6.43598 36.5842 3.63028 35.1479 0.0384766C35.1479 0.0384766 34.9465 -0.0253634 34.5309 -0.0315394L34.5309 -0.0315074ZM26.184 13.4443C27.9086 13.4405 29.3858 13.7366 30.495 14.9002V14.9012C31.8828 16.3585 32.6949 18.118 32.6949 20.0141C32.6949 28.8672 27.0011 29.108 19.9781 29.108C12.9539 29.108 7.26133 27.8812 7.26133 20.0141C7.26133 18.1306 8.06161 16.3816 9.4323 14.9302C11.7187 12.5113 15.588 13.7922 19.9782 13.7922C22.2317 13.7919 24.3482 13.4482 26.1841 13.4442L26.184 13.4443ZM13.1022 16.0512C11.6409 16.0512 10.4562 18.027 10.4562 20.4652C10.4562 22.9038 11.6408 24.8801 13.1022 24.8801C14.5635 24.8801 15.7482 22.9038 15.7482 20.4652C15.7482 18.0273 14.5636 16.053 13.1022 16.0512ZM27.299 16.0512C25.8376 16.0512 24.653 18.027 24.653 20.4652C24.653 22.9038 25.8376 24.8801 27.299 24.8801C28.7603 24.8801 29.9449 22.9038 29.9449 20.4652C29.9449 18.0273 28.7603 16.053 27.299 16.0512Z" fill="black"/>
</g>
<defs>
<clipPath id="clip0">
<rect width="39.3" height="32" fill="white"/>
</clipPath>
</defs>
</svg>
