<svg width="33" height="32" viewBox="0 0 33 32" fill="none" xmlns="http://www.w3.org/2000/svg">
<path d="M16.3 2.66666C19.9227 2.66666 20.3747 2.67999 21.796 2.74666C23.216 2.81332 24.1827 3.03599 25.0333 3.36666C25.9133 3.70532 26.6547 4.16399 27.396 4.90399C28.074 5.57052 28.5986 6.37678 28.9333 7.26666C29.2627 8.11599 29.4867 9.08399 29.5533 10.504C29.616 11.9253 29.6333 12.3773 29.6333 16C29.6333 19.6227 29.62 20.0747 29.5533 21.496C29.4867 22.916 29.2627 23.8827 28.9333 24.7333C28.5996 25.6237 28.0748 26.4301 27.396 27.096C26.7293 27.7738 25.9231 28.2983 25.0333 28.6333C24.184 28.9627 23.216 29.1867 21.796 29.2533C20.3747 29.316 19.9227 29.3333 16.3 29.3333C12.6773 29.3333 12.2253 29.32 10.804 29.2533C9.38401 29.1867 8.41734 28.9627 7.56667 28.6333C6.67644 28.2993 5.87004 27.7746 5.20401 27.096C4.52588 26.4296 4.00125 25.6233 3.66667 24.7333C3.33601 23.884 3.11334 22.916 3.04667 21.496C2.98401 20.0747 2.96667 19.6227 2.96667 16C2.96667 12.3773 2.98001 11.9253 3.04667 10.504C3.11334 9.08266 3.33601 8.11732 3.66667 7.26666C4.00032 6.37623 4.52508 5.56975 5.20401 4.90399C5.87024 4.22563 6.67658 3.70096 7.56667 3.36666C8.41734 3.03599 9.38267 2.81332 10.804 2.74666C12.2253 2.68399 12.6773 2.66666 16.3 2.66666ZM16.3 9.33332C14.5319 9.33332 12.8362 10.0357 11.586 11.2859C10.3357 12.5362 9.63334 14.2319 9.63334 16C9.63334 17.7681 10.3357 19.4638 11.586 20.714C12.8362 21.9643 14.5319 22.6667 16.3 22.6667C18.0681 22.6667 19.7638 21.9643 21.0141 20.714C22.2643 19.4638 22.9667 17.7681 22.9667 16C22.9667 14.2319 22.2643 12.5362 21.0141 11.2859C19.7638 10.0357 18.0681 9.33332 16.3 9.33332ZM24.9667 8.99999C24.9667 8.55796 24.7911 8.13404 24.4785 7.82148C24.166 7.50892 23.742 7.33332 23.3 7.33332C22.858 7.33332 22.4341 7.50892 22.1215 7.82148C21.8089 8.13404 21.6333 8.55796 21.6333 8.99999C21.6333 9.44202 21.8089 9.86594 22.1215 10.1785C22.4341 10.4911 22.858 10.6667 23.3 10.6667C23.742 10.6667 24.166 10.4911 24.4785 10.1785C24.7911 9.86594 24.9667 9.44202 24.9667 8.99999ZM16.3 12C17.3609 12 18.3783 12.4214 19.1284 13.1716C19.8786 13.9217 20.3 14.9391 20.3 16C20.3 17.0609 19.8786 18.0783 19.1284 18.8284C18.3783 19.5786 17.3609 20 16.3 20C15.2391 20 14.2217 19.5786 13.4716 18.8284C12.7214 18.0783 12.3 17.0609 12.3 16C12.3 14.9391 12.7214 13.9217 13.4716 13.1716C14.2217 12.4214 15.2391 12 16.3 12Z" fill="black"/>
</svg>
