<svg width="32" height="32" viewBox="0 0 32 32" fill="none" xmlns="http://www.w3.org/2000/svg">
<path d="M17.3333 10.6667C18.3942 10.6667 19.4116 11.0881 20.1618 11.8382C20.9119 12.5884 21.3333 13.6058 21.3333 14.6667C21.3333 15.0203 21.4738 15.3594 21.7239 15.6095C21.9739 15.8595 22.313 16 22.6667 16C23.0203 16 23.3594 15.8595 23.6095 15.6095C23.8595 15.3594 24 15.0203 24 14.6667C24 12.8986 23.2976 11.2029 22.0474 9.95262C20.7971 8.70238 19.1014 8 17.3333 8C16.9797 8 16.6406 8.14048 16.3905 8.39052C16.1405 8.64057 16 8.97971 16 9.33333C16 9.68696 16.1405 10.0261 16.3905 10.2761C16.6406 10.5262 16.9797 10.6667 17.3333 10.6667Z" fill="black"/>
<path d="M17.3334 5.33332C19.8087 5.33332 22.1827 6.31665 23.933 8.06699C25.6834 9.81733 26.6667 12.1913 26.6667 14.6667C26.6667 15.0203 26.8072 15.3594 27.0572 15.6095C27.3073 15.8595 27.6464 16 28 16C28.3536 16 28.6928 15.8595 28.9428 15.6095C29.1929 15.3594 29.3334 15.0203 29.3334 14.6667C29.3334 11.4841 28.0691 8.43181 25.8186 6.18138C23.5682 3.93094 20.516 2.66666 17.3334 2.66666C16.9797 2.66666 16.6406 2.80713 16.3905 3.05718C16.1405 3.30723 16 3.64637 16 3.99999C16 4.35361 16.1405 4.69275 16.3905 4.9428C16.6406 5.19285 16.9797 5.33332 17.3334 5.33332ZM29 21.2133C28.9267 20.9993 28.8001 20.8074 28.6321 20.6558C28.4642 20.5042 28.2604 20.3978 28.04 20.3467L20.04 18.52C19.8229 18.4708 19.5968 18.4767 19.3826 18.5372C19.1683 18.5978 18.9726 18.711 18.8134 18.8667C18.6267 19.04 18.6134 19.0533 17.7467 20.7067C14.871 19.3815 12.5667 17.0678 11.2534 14.1867C12.9467 13.3333 12.96 13.3333 13.1334 13.1333C13.289 12.9741 13.4022 12.7784 13.4628 12.5641C13.5233 12.3498 13.5293 12.1238 13.48 11.9067L11.6534 3.99999C11.6022 3.77958 11.4958 3.57582 11.3442 3.40787C11.1926 3.23993 11.0007 3.11333 10.7867 3.03999C10.4753 2.92878 10.1538 2.84839 9.82669 2.79999C9.48969 2.72185 9.1458 2.67719 8.80002 2.66666C7.17336 2.66666 5.61332 3.31285 4.4631 4.46307C3.31288 5.61329 2.66669 7.17333 2.66669 8.79999C2.67374 14.2436 4.83934 19.4622 8.68855 23.3115C12.5378 27.1607 17.7564 29.3263 23.2 29.3333C24.0055 29.3333 24.803 29.1747 25.5471 28.8665C26.2913 28.5582 26.9674 28.1064 27.5369 27.5369C28.1065 26.9674 28.5583 26.2912 28.8665 25.5471C29.1747 24.803 29.3334 24.0054 29.3334 23.2C29.3338 22.8606 29.307 22.5218 29.2534 22.1867C29.1973 21.8555 29.1126 21.5298 29 21.2133Z" fill="black"/>
</svg>
