<svg width="29" height="32" viewBox="0 0 29 32" fill="none" xmlns="http://www.w3.org/2000/svg">
<g clip-path="url(#clip0)">
<path d="M25.3 2H3.29999C1.64374 2 0.299988 3.34375 0.299988 5V27C0.299988 28.6562 1.64374 30 3.29999 30H25.3C26.9562 30 28.3 28.6562 28.3 27V5C28.3 3.34375 26.9562 2 25.3 2ZM22.2437 11.925C22.2562 12.1 22.2562 12.2812 22.2562 12.4563C22.2562 17.875 18.1312 24.1187 10.5937 24.1187C8.26874 24.1187 6.11249 23.4438 4.29999 22.2812C4.63124 22.3188 4.94999 22.3312 5.28749 22.3312C7.20624 22.3312 8.96874 21.6812 10.375 20.5812C8.57499 20.5437 7.06249 19.3625 6.54374 17.7375C7.17499 17.8312 7.74374 17.8313 8.39374 17.6625C6.51874 17.2812 5.11249 15.6312 5.11249 13.6375V13.5875C5.65624 13.8937 6.29374 14.0813 6.96249 14.1062C6.40026 13.7323 5.93935 13.2249 5.62091 12.6295C5.30246 12.034 5.13638 11.369 5.13749 10.6938C5.13749 9.93125 5.33749 9.23125 5.69374 8.625C7.71249 11.1125 10.7437 12.7375 14.1437 12.9125C13.5625 10.1313 15.6437 7.875 18.1437 7.875C19.325 7.875 20.3875 8.36875 21.1375 9.16875C22.0625 8.99375 22.95 8.65 23.7375 8.18125C23.4312 9.13125 22.7875 9.93125 21.9375 10.4375C22.7625 10.35 23.5625 10.1188 24.3 9.8C23.7437 10.6188 23.0437 11.3438 22.2437 11.925Z" fill="black"/>
</g>
<defs>
<clipPath id="clip0">
<rect width="28" height="32" fill="white" transform="translate(0.299988)"/>
</clipPath>
</defs>
</svg>
